<?xml version="1.0" standalone="no"?>
<!DOCTYPE svg PUBLIC "-//W3C//DTD SVG 20010904//EN"
 "http://www.w3.org/TR/2001/REC-SVG-20010904/DTD/svg10.dtd">
<svg version="1.0" xmlns="http://www.w3.org/2000/svg"
 width="707.000000pt" height="353.000000pt" viewBox="0 0 707.000000 353.000000"
 preserveAspectRatio="xMidYMid meet">

<g transform="translate(0.000000,353.000000) scale(0.100000,-0.100000)"
fill="#000000" stroke="none">
<path d="M807 2172 c-79 -5 -78 1 -75 -372 3 -305 4 -322 22 -336 16 -11 61
-14 208 -14 l188 0 0 25 0 25 -180 0 -180 0 0 310 0 310 330 0 330 0 0 -194
c0 -200 1 -206 41 -206 5 0 9 91 9 214 0 187 -2 215 -17 227 -13 11 -78 14
-322 14 -168 0 -327 -1 -354 -3z"/>
<path d="M2045 1700 c0 -267 1 -376 2 -242 2 133 2 351 0 485 -1 133 -2 24 -2
-243z"/>
<path d="M2500 2097 c-21 -7 -41 -25 -53 -45 -29 -50 -12 -97 69 -179 71 -73
84 -103 63 -142 -11 -20 -24 -27 -54 -29 -35 -3 -44 1 -68 30 l-28 33 3 -35
c3 -32 6 -36 48 -46 84 -20 150 21 150 95 0 42 -24 80 -95 147 -25 24 -50 55
-55 69 -22 59 34 109 90 80 15 -8 30 -20 33 -27 3 -7 6 -1 6 14 1 26 -5 30
-59 43 -8 2 -31 -2 -50 -8z"/>
<path d="M3276 2039 c-19 -41 -64 -138 -99 -216 -63 -139 -64 -143 -41 -143
14 0 24 6 24 15 0 8 11 39 24 70 l25 55 95 0 c107 0 107 0 136 -97 12 -40 16
-43 47 -43 l33 0 -20 40 c-11 22 -54 115 -95 207 -41 92 -79 171 -85 177 -6 6
-21 -16 -44 -65z m104 -185 c0 -11 -18 -14 -80 -14 -44 0 -80 2 -80 4 0 6 69
166 77 179 7 11 83 -144 83 -169z"/>
<path d="M4163 2099 c-35 -10 -73 -52 -73 -81 0 -38 32 -94 85 -148 30 -30 59
-67 64 -82 30 -79 -67 -124 -123 -57 l-26 31 0 -31 c0 -33 7 -40 57 -51 74
-17 143 29 143 97 0 40 -37 97 -103 161 -49 47 -63 81 -47 113 22 41 86 42
116 1 12 -15 13 -14 14 10 0 26 -8 32 -60 43 -8 2 -29 -1 -47 -6z"/>
<path d="M4783 2038 c-17 -40 -61 -137 -97 -215 -64 -141 -64 -143 -40 -143
14 0 24 6 24 15 0 8 11 39 25 70 l24 56 98 -3 98 -3 25 -67 c24 -64 27 -68 57
-68 l32 0 -53 113 c-29 61 -73 158 -97 215 -24 56 -49 102 -54 102 -6 0 -25
-33 -42 -72z m71 -97 c20 -45 36 -87 36 -92 0 -5 -36 -9 -80 -9 -44 0 -80 2
-80 5 0 2 12 30 26 62 14 32 33 73 41 92 8 18 16 31 18 29 2 -2 20 -41 39 -87z"/>
<path d="M5593 2099 c-53 -10 -91 -30 -124 -66 -48 -51 -62 -90 -56 -159 8
-105 72 -171 184 -192 50 -9 127 -3 150 11 6 4 13 15 15 25 5 18 4 18 -31 0
-42 -22 -121 -24 -159 -4 -67 35 -102 101 -102 193 0 110 49 164 157 171 50 3
69 0 97 -16 33 -19 33 -19 29 -1 -3 11 -13 23 -22 28 -26 13 -93 18 -138 10z"/>
<path d="M2715 1890 c0 -193 1 -210 18 -210 15 0 17 14 18 158 l0 157 154
-160 154 -159 3 212 c3 206 2 212 -17 212 -19 0 -20 -6 -17 -102 2 -57 2 -130
0 -162 l-3 -59 -150 162 c-82 88 -152 161 -155 161 -3 0 -5 -94 -5 -210z"/>
<path d="M3565 1891 l0 -211 28 0 27 0 0 83 0 84 45 1 c86 1 138 56 137 144
-1 33 -7 48 -32 72 -29 29 -36 31 -118 34 l-87 4 0 -211z m152 181 c27 -21 42
-84 32 -132 -10 -46 -50 -80 -95 -80 l-34 0 0 108 c0 60 3 112 7 115 13 13 68
6 90 -11z"/>
<path d="M4375 1890 l0 -210 101 0 c94 0 102 1 107 21 5 19 2 20 -31 15 -20
-3 -55 -7 -77 -8 l-40 -3 -3 94 -3 93 60 -4 c51 -4 60 -2 64 13 4 16 -1 17
-59 12 l-64 -6 0 88 0 87 72 -3 c51 -3 72 0 75 9 4 9 -20 12 -99 12 l-103 0 0
-210z"/>
<path d="M5075 1890 l0 -210 28 0 27 0 0 90 0 90 34 0 c31 0 38 -6 92 -89 54
-82 62 -90 92 -90 l33 -1 -42 58 c-22 31 -53 74 -67 95 l-25 38 27 28 c38 40
50 91 32 135 -21 49 -59 66 -153 66 l-78 0 0 -210z m138 189 c31 -14 47 -48
47 -100 0 -55 -42 -99 -94 -99 l-36 0 0 99 c0 70 4 101 13 104 21 9 45 7 70
-4z"/>
<path d="M5835 1890 l0 -210 30 0 30 0 -3 99 c-4 119 -7 117 135 106 l94 -7
-3 -99 -3 -99 30 0 30 0 0 210 0 210 -27 0 -28 0 0 -95 0 -95 -116 0 -115 0 3
95 3 95 -30 0 -30 0 0 -210z"/>
<path d="M1192 2033 c2 -10 15 -20 31 -23 l28 -5 -60 -60 -61 -59 -34 33 c-27
26 -37 31 -52 23 -33 -18 -166 -161 -159 -172 12 -20 30 -9 100 60 l71 70 29
-30 c16 -16 36 -30 45 -30 8 0 45 29 80 65 35 36 68 65 72 65 3 0 8 -12 10
-27 2 -17 9 -28 18 -28 12 0 15 14 15 65 l0 65 -68 3 c-61 3 -68 1 -65 -15z"/>
<path d="M1270 1776 c0 -68 9 -92 24 -67 3 4 19 11 36 15 31 6 31 6 28 63 l-3
58 -42 3 -43 3 0 -75z"/>
<path d="M3830 1835 c0 -12 18 -15 100 -15 82 0 100 3 100 15 0 12 -18 15
-100 15 -82 0 -100 -3 -100 -15z"/>
<path d="M1142 1684 c2 -71 7 -109 15 -111 6 -2 14 5 18 17 3 11 18 33 31 50
21 25 25 37 22 87 l-3 58 -43 3 -43 3 3 -107z"/>
<path d="M1012 1653 l3 -78 38 -3 37 -3 0 80 0 81 -40 0 -41 0 3 -77z"/>
<path d="M882 1623 c3 -48 3 -48 40 -51 32 -3 38 0 43 20 3 13 4 34 2 48 -3
21 -10 25 -46 28 l-42 3 3 -48z"/>
<path d="M1363 1660 c-75 -17 -133 -84 -141 -160 -12 -131 124 -235 243 -186
39 17 40 17 58 -6 72 -91 98 -105 131 -72 27 26 18 47 -40 99 -52 47 -55 52
-45 78 28 72 1 175 -56 215 -44 30 -102 43 -150 32z m87 -65 c91 -47 95 -177
6 -219 -46 -22 -77 -20 -117 7 -44 29 -61 63 -55 110 6 49 30 85 69 102 41 18
62 18 97 0z"/>
</g>
</svg>
