<?xml version="1.0" standalone="no"?>
<!DOCTYPE svg PUBLIC "-//W3C//DTD SVG 20010904//EN"
 "http://www.w3.org/TR/2001/REC-SVG-20010904/DTD/svg10.dtd">
<svg version="1.0" xmlns="http://www.w3.org/2000/svg"
 width="512.000000pt" height="512.000000pt" viewBox="0 0 512.000000 512.000000"
 preserveAspectRatio="xMidYMid meet">

<g transform="translate(0.000000,512.000000) scale(0.100000,-0.100000)"
fill="#000000" stroke="none">
<path d="M1345 4788 c-171 -32 -332 -185 -377 -357 -16 -61 -17 -198 -17
-1871 -1 -1969 -4 -1855 55 -1972 36 -71 132 -169 203 -207 120 -64 58 -61
1351 -61 1295 0 1230 -3 1352 62 113 60 210 185 244 312 11 42 14 364 14 1867
0 2004 5 1855 -63 1982 -60 113 -203 218 -335 246 -68 14 -2353 13 -2427 -1z"/>
</g>
</svg>
