<?xml version="1.0" standalone="no"?>
<!DOCTYPE svg PUBLIC "-//W3C//DTD SVG 20010904//EN"
 "http://www.w3.org/TR/2001/REC-SVG-20010904/DTD/svg10.dtd">
<svg version="1.0" xmlns="http://www.w3.org/2000/svg"
 width="512.000000pt" height="512.000000pt" viewBox="0 0 512.000000 512.000000"
 preserveAspectRatio="xMidYMid meet">

<g transform="translate(0.000000,512.000000) scale(0.100000,-0.100000)"
fill="#000000" stroke="none">
<path d="M2290 5046 c-748 -87 -1397 -483 -1810 -1103 -218 -327 -345 -668
-402 -1078 -19 -135 -16 -504 5 -650 48 -333 171 -675 341 -955 199 -325 511
-637 836 -836 554 -337 1241 -447 1870 -298 463 109 857 330 1195 669 390 390
631 871 712 1420 21 146 24 514 5 650 -57 410 -184 751 -402 1078 -251 377
-572 660 -975 857 -246 121 -472 192 -750 235 -139 22 -481 28 -625 11z m-110
-470 l315 -233 3 -400 2 -399 -470 -342 -471 -342 -352 80 c-193 44 -355 84
-359 88 -4 4 -77 168 -163 365 l-156 359 74 111 c225 336 544 619 897 797 72
36 235 103 335 138 17 6 30 11 30 11 0 1 142 -104 315 -233z m1202 188 c108
-38 300 -132 408 -199 289 -180 539 -421 727 -702 l75 -112 -153 -358 c-83
-197 -155 -361 -158 -365 -4 -4 -165 -43 -359 -87 l-352 -80 -458 332 -457
332 -3 405 -2 405 317 227 c175 125 323 227 330 227 6 1 45 -11 85 -25z
m-2209 -1968 c181 -41 330 -76 331 -78 2 -2 82 -249 180 -550 l177 -547 -168
-255 -168 -256 -50 0 c-27 0 -205 -7 -395 -15 l-345 -15 -28 32 c-65 78 -193
284 -257 413 -110 224 -189 484 -221 723 -12 91 -11 94 10 115 95 95 579 513
591 510 8 -2 163 -37 343 -77z m3435 -176 c331 -288 303 -247 277 -410 -32
-200 -76 -360 -151 -542 -76 -188 -162 -340 -282 -502 l-66 -89 -96 6 c-52 3
-216 11 -365 17 -148 6 -284 13 -302 16 -27 4 -39 18 -90 97 -33 50 -106 163
-162 249 l-103 158 177 547 c98 302 179 550 181 552 4 4 677 159 685 157 3 0
137 -116 297 -256z m-1298 -1337 c85 -130 156 -241 158 -247 1 -6 -60 -175
-136 -376 l-138 -365 -89 -22 c-179 -46 -295 -58 -545 -58 -248 0 -359 12
-545 58 l-90 22 -138 368 -137 368 161 244 161 245 592 0 592 0 154 -237z"/>
</g>
</svg>
