<?xml version="1.0" standalone="no"?>
<!DOCTYPE svg PUBLIC "-//W3C//DTD SVG 20010904//EN"
 "http://www.w3.org/TR/2001/REC-SVG-20010904/DTD/svg10.dtd">
<svg version="1.0" xmlns="http://www.w3.org/2000/svg"
 width="512.000000pt" height="512.000000pt" viewBox="0 0 512.000000 512.000000"
 preserveAspectRatio="xMidYMid meet">

<g transform="translate(0.000000,512.000000) scale(0.100000,-0.100000)"
fill="#000000" stroke="none">
<path d="M1020 4817 c-212 -79 -396 -150 -410 -159 -16 -11 -126 -197 -302
-510 -151 -271 -283 -507 -292 -525 -22 -43 -20 -88 5 -132 31 -54 743 -652
798 -670 68 -21 113 2 205 105 l76 85 2 -923 3 -922 1418 1854 1418 1854 -113
42 -113 43 -192 0 -192 1 -5 -47 c-33 -280 -179 -499 -411 -614 -125 -61 -225
-83 -365 -76 -204 9 -346 71 -491 216 -130 130 -201 278 -216 447 l-6 74 -216
-1 -216 0 -385 -142z"/>
<path d="M2142 4898 c23 -170 160 -323 326 -368 69 -18 189 -14 257 10 160 55
278 200 301 369 l7 51 -450 0 -450 0 9 -62z"/>
<path d="M2667 2719 l-1567 -2049 2 -234 3 -234 1675 2175 c921 1197 1690
2195 1709 2219 48 62 55 57 -189 147 l-66 24 -1567 -2048z"/>
<path d="M3070 2263 l-1612 -2098 1214 -3 c1369 -3 1276 -8 1323 72 l25 43 0
1367 0 1367 75 -85 c113 -126 176 -142 271 -70 64 49 631 529 682 578 89 85
92 123 19 257 -130 240 -373 668 -378 669 -4 0 -732 -944 -1619 -2097z"/>
</g>
</svg>
