<?xml version="1.0" standalone="no"?>
<!DOCTYPE svg PUBLIC "-//W3C//DTD SVG 20010904//EN"
 "http://www.w3.org/TR/2001/REC-SVG-20010904/DTD/svg10.dtd">
<svg version="1.0" xmlns="http://www.w3.org/2000/svg"
 width="512.000000pt" height="512.000000pt" viewBox="0 0 512.000000 512.000000"
 preserveAspectRatio="xMidYMid meet">

<g transform="translate(0.000000,512.000000) scale(0.100000,-0.100000)"
fill="#000000" stroke="none">
<path d="M214 4350 c-12 -5 -29 -19 -38 -32 -15 -20 -16 -164 -16 -1556 l0
-1533 25 -24 24 -25 921 0 920 0 0 -315 0 -315 -160 0 c-157 0 -161 -1 -185
-25 -16 -15 -25 -36 -25 -55 0 -19 9 -40 25 -55 l24 -25 831 0 831 0 24 25
c33 32 33 78 0 110 -24 24 -28 25 -185 25 l-160 0 0 315 0 315 920 0 921 0 24
25 25 24 0 1535 0 1535 -24 28 -24 28 -2339 2 c-1304 1 -2347 -2 -2359 -7z
m4586 -1580 l0 -1430 -2240 0 -2240 0 0 1430 0 1430 2240 0 2240 0 0 -1430z
m-1890 -1905 l0 -315 -350 0 -350 0 0 315 0 315 350 0 350 0 0 -315z"/>
<path d="M534 4030 c-12 -5 -29 -19 -38 -32 -14 -20 -16 -138 -16 -1236 l0
-1213 25 -24 c24 -25 25 -25 229 -25 112 0 212 3 221 6 25 10 47 62 40 95 -12
53 -33 59 -202 59 l-153 0 0 1110 0 1110 1920 0 1920 0 0 -1110 0 -1110 -1669
0 -1668 0 -27 -21 c-37 -29 -37 -89 0 -118 l27 -21 1724 0 1724 0 24 25 25 24
0 1215 0 1215 -24 28 -24 28 -2019 2 c-1124 1 -2027 -2 -2039 -7z"/>
<path d="M1024 3478 c-21 -10 -44 -47 -44 -70 0 -18 379 -1300 394 -1334 28
-62 119 -60 144 2 16 40 392 1318 392 1332 0 26 -25 62 -51 73 -37 15 -82 -2
-97 -36 -6 -14 -70 -224 -142 -467 -72 -244 -140 -474 -152 -513 -17 -57 -22
-66 -29 -50 -5 11 -74 241 -154 512 -79 270 -150 502 -156 516 -11 24 -48 48
-72 46 -7 0 -22 -5 -33 -11z"/>
<path d="M2271 3479 c-64 -19 -118 -65 -148 -126 l-28 -58 -3 -580 c-2 -319 0
-595 3 -613 3 -18 15 -42 26 -53 23 -23 77 -25 105 -5 18 14 19 32 24 323 l5
308 305 0 305 0 5 -308 c5 -291 6 -309 24 -323 28 -20 82 -18 105 5 11 11 23
35 26 53 3 18 5 294 3 613 -3 564 -4 581 -24 625 -25 54 -69 100 -121 126 -34
17 -65 19 -308 21 -159 1 -284 -2 -304 -8z m544 -159 c47 -18 55 -58 55 -280
l0 -200 -310 0 -310 0 0 200 c0 218 8 262 52 280 31 12 480 13 513 0z"/>
<path d="M3255 3478 c-45 -27 -44 -9 -45 -719 0 -669 0 -677 21 -703 29 -37
89 -37 118 0 20 26 21 38 21 325 l0 299 129 0 128 0 178 -302 c98 -167 187
-313 198 -325 30 -34 89 -32 116 3 12 15 21 36 21 48 0 12 -70 141 -156 287
-86 145 -158 270 -161 277 -4 9 13 12 63 12 82 0 135 22 187 75 61 63 69 104
65 347 -3 196 -5 216 -25 253 -25 47 -64 85 -113 111 -32 17 -65 19 -380 22
-251 1 -350 -1 -365 -10z m696 -177 l29 -29 0 -192 c0 -189 0 -191 -25 -215
l-24 -25 -281 0 -280 0 0 245 0 245 276 0 276 0 29 -29z"/>
</g>
</svg>
